/vscmnt/brussel_pixiu_data/_data_brussel/112/vsc11236/PredSimResults/SUBJ10mtu3D/weighted-expIG/worker_03.mot
version=1
nRows=8
nColumns=50
inDegrees=yes
endheader
                time	         pelvis_tilt	         pelvis_list	     pelvis_rotation	           pelvis_tx	           pelvis_ty	           pelvis_tz	       hip_flexion_r	     hip_adduction_r	      hip_rotation_r	        knee_angle_r	       ankle_angle_r	         mtp_angle_r	       hip_flexion_l	     hip_adduction_l	      hip_rotation_l	        knee_angle_l	       ankle_angle_l	         mtp_angle_l	    lumbar_extension	      lumbar_bending	     lumbar_rotation	 ercspn_r/activation	 intobl_r/activation	 extobl_r/activation	    abd_r/activation	    add_r/activation	hamstrings_r/activation	bifemsh_r/activation	glut_max_r/activation	iliopsoas_r/activation	rect_fem_r/activation	  vasti_r/activation	gastroc_r/activation	 soleus_r/activation	tib_ant_r/activation	 ercspn_l/activation	 intobl_l/activation	 extobl_l/activation	    abd_l/activation	    add_l/activation	hamstrings_l/activation	bifemsh_l/activation	glut_max_l/activation	iliopsoas_l/activation	rect_fem_l/activation	  vasti_l/activation	gastroc_l/activation	 soleus_l/activation	tib_ant_l/activation	
          3.00000003	         -9.29765495	          3.94372323	         -8.76763571	          3.36000003	          0.82254126	         -0.00723071	          2.51423649	         -2.38048133	         -1.03440630	        -23.56532017	         16.52670671	         21.59310766	         34.63026451	          2.16823524	          5.57797949	         -9.68912492	          6.99361885	          0.68031205	         -7.61139489	         -2.58518779	         -2.52799356	          0.05093010	          0.00999999	          0.00999999	          0.04345043	          0.04916938	          0.01381073	          0.01000000	          0.01000000	          0.18573283	          0.04547959	          0.04101812	          0.24271935	          0.15800655	          0.01542561	          0.15450458	          0.02267844	          0.00999999	          0.11005314	          0.18607112	          0.04538815	          0.21296883	          0.02107983	          0.04956733	          0.03829730	          0.00999999	          0.00999999	          0.00999999	          0.26836811	
          3.02000003	         -9.38036763	          3.25854429	         -8.20037452	          3.38870877	          0.82109584	         -0.00830009	          1.48520194	         -2.04247500	         -2.05461951	        -25.37229500	         14.28025066	         24.32481774	         33.22471267	          1.97342529	          4.86996200	        -10.64603196	          6.90430712	          0.54825519	         -6.74596247	         -2.60209128	         -1.99936697	          0.06375831	          0.00999999	          0.00999999	          0.03258783	          0.08626003	          0.04374766	          0.01373748	          0.00999999	          0.28655223	          0.03410969	          0.03076359	          0.18203951	          0.11850491	          0.01156921	          0.11587843	          0.01700883	          0.00999999	          0.09604913	          0.17150227	          0.07425212	          0.15972662	          0.09475629	          0.03717550	          0.02872297	          0.00999999	          0.01333333	          0.01333332	          0.31014798	
          3.04000003	         -9.44650889	          2.65124485	         -7.58831711	          3.41676182	          0.82011608	         -0.00948051	          1.54919881	         -1.81152138	         -2.99494130	        -29.00565904	         11.69004623	         26.57622494	         31.80515396	          1.92161224	          4.51770338	        -11.42059334	          6.24135607	          0.44372648	         -5.95957056	         -2.76531800	         -1.57151603	          0.10615020	          0.00999999	          0.00999999	          0.02444087	          0.15024676	          0.03281075	          0.05639513	          0.00999999	          0.33981766	          0.02558227	          0.02307269	          0.13652963	          0.08887869	          0.00999999	          0.09662702	          0.01275662	          0.00999999	          0.14423186	          0.20037283	          0.07382306	          0.11979497	          0.13551007	          0.02788163	          0.02154223	          0.05198256	          0.01000000	          0.00999999	          0.35567463	
          3.06000003	         -9.49485473	          2.12299476	         -6.89464759	          3.44340180	          0.82048730	         -0.01072089	          2.78581576	         -1.70949026	         -3.81787953	        -34.33243874	          8.51212414	         27.44103012	         30.51824628	          1.97403105	          4.52199285	        -12.34558235	          6.16539140	          0.35912392	         -5.35681339	         -3.07058522	         -1.24771905	          0.13210451	          0.00999999	          0.00999999	          0.01833065	          0.19680375	          0.02460806	          0.07323195	          0.00999999	          0.31044632	          0.01918670	          0.01730452	          0.10239723	          0.06665901	          0.00999999	          0.07247026	          0.00999999	          0.00999999	          0.13699434	          0.16660613	          0.06632299	          0.08984622	          0.13184430	          0.02091122	          0.01615667	          0.13953224	          0.00999999	          0.00999999	          0.36301254	
          3.08000003	         -9.52801532	          1.62140693	         -6.08865455	          3.46857918	          0.82263535	         -0.01188807	          4.93280170	         -1.64707973	         -4.42500135	        -40.74145963	          5.31407208	         25.13802777	         29.10609116	          2.05790966	          4.88960559	        -12.93270447	          6.48409979	          0.29947450	         -4.94582316	         -3.44564314	         -1.02581844	          0.18487829	          0.05603321	          0.00999999	          0.01374799	          0.14760281	          0.01845604	          0.05492396	          0.00999999	          0.25415119	          0.01439002	          0.01297839	          0.07679792	          0.04999426	          0.18186683	          0.05435270	          0.00999999	          0.00999999	          0.15007776	          0.12495460	          0.05813747	          0.06738467	          0.12508256	          0.01568341	          0.01211750	          0.14908431	          0.00999999	          0.00999999	          0.33972259	
          3.10000003	         -9.54480087	          1.11706492	         -5.17098001	          3.49262327	          0.82590520	         -0.01290583	          7.40872047	         -1.43145529	         -4.72047694	        -47.07949276	          3.98436708	         19.84771539	         27.49066730	          2.10964834	          5.52109288	        -13.06205085	          6.96878086	          0.26814110	         -4.66800346	         -3.80247717	         -0.91018411	          0.18383812	          0.07812695	          0.00999999	          0.01031099	          0.11070211	          0.01384203	          0.08601320	          0.00999999	          0.20224177	          0.11790635	          0.00999999	          0.05759844	          0.03749569	          0.24027544	          0.04076452	          0.00999999	          0.00999999	          0.14478477	          0.09371595	          0.06479671	          0.05053850	          0.11747030	          0.01176256	          0.00999999	          0.13331204	          0.00999999	          0.00999999	          0.30994191	
          3.12000003	         -9.55118820	          0.57701322	         -4.17906970	          3.51585531	          0.82991565	         -0.01374523	          9.77688586	         -0.93476670	         -4.85994164	        -51.78705511	          4.53297172	         15.43314433	         25.71608935	          2.05830571	          6.26922712	        -12.82515544	          7.53322346	          0.25999137	         -4.47885596	         -4.06860089	         -0.88408603	          0.15642970	          0.09529033	          0.00999999	          0.00999999	          0.09784617	          0.01038152	          0.18564477	          0.00999999	          0.18366905	          0.18631821	          0.00999999	          0.04929446	          0.02812177	          0.23571281	          0.03317411	          0.00999999	          0.00999999	          0.12858387	          0.07028696	          0.06984929	          0.03790388	          0.09715762	          0.00999999	          0.00999999	          0.11480062	          0.00999999	          0.00999999	          0.28107079	
          3.14000003	         -9.54672693	         -0.02650921	         -3.17091375	          3.53839424	          0.83437950	         -0.01447158	         12.04900794	         -0.22610290	         -4.96720296	        -54.70974036	          5.00819007	         11.99392323	         23.81984344	          1.85096888	          7.04621750	        -12.26827741	          8.00040004	          0.27836348	         -4.37816729	         -4.19051737	         -0.92163148	          0.13482339	          0.11237841	          0.00999999	          0.00999999	          0.10970746	          0.00999999	          0.31376455	          0.00999999	          0.17652170	          0.21304487	          0.00999999	          0.05568348	          0.02109133	          0.23540335	          0.03046179	          0.00999999	          0.00999999	          0.10812427	          0.05271522	          0.06933572	          0.02842791	          0.08146888	          0.00999999	          0.00999999	          0.10551807	          0.00999999	          0.00999999	          0.26404010	
